<?xml version="1.0" standalone="no"?>
<!DOCTYPE svg PUBLIC "-//W3C//DTD SVG 20010904//EN"
 "http://www.w3.org/TR/2001/REC-SVG-20010904/DTD/svg10.dtd">
<svg version="1.0" xmlns="http://www.w3.org/2000/svg"
 width="260.000000pt" height="260.000000pt" viewBox="0 0 260.000000 260.000000"
 preserveAspectRatio="xMidYMid meet">
<metadata>
Created by potrace 1.11, written by Peter Selinger 2001-2013
</metadata>
<g transform="translate(0.000000,260.000000) scale(0.100000,-0.100000)"
fill="#000000" stroke="none">
<path d="M1159 2565 c-2 -2 -28 -6 -58 -10 -242 -30 -514 -170 -704 -361 -358
-359 -466 -910 -272 -1380 160 -388 508 -675 920 -760 94 -19 381 -26 455 -11
19 4 49 10 65 13 17 3 73 19 125 36 448 143 776 518 861 983 19 107 23 340 7
425 -55 288 -166 505 -355 694 -193 194 -432 318 -696 361 -72 11 -339 20
-348 10z m341 -209 c406 -79 735 -385 840 -781 95 -363 -11 -763 -271 -1026
-173 -174 -420 -295 -641 -315 l-71 -6 7 63 c39 362 348 808 705 1019 86 51
106 66 109 83 5 26 -18 21 -100 -21 -212 -108 -394 -239 -556 -400 -130 -129
-161 -163 -241 -272 -95 -127 -207 -326 -236 -418 -8 -26 -21 -25 -102 4 l-41
16 29 71 c79 192 207 377 387 561 202 207 445 368 721 479 126 50 135 56 125
81 -8 22 -29 18 -205 -44 -165 -57 -190 -68 -349 -147 -186 -92 -422 -246
-549 -356 -148 -131 -244 -228 -358 -365 -48 -56 -89 -102 -92 -102 -10 1
-104 94 -147 145 -148 180 -232 408 -238 643 -4 167 24 314 87 457 206 466
697 727 1187 631z"/>
<path d="M1188 2175 c-1 -1 -25 -5 -53 -8 -27 -3 -52 -6 -55 -7 -3 0 14 -9 38
-20 120 -55 247 -269 257 -436 7 -121 -49 -248 -160 -359 -74 -74 -123 -104
-186 -112 -31 -5 -42 -1 -63 20 -66 66 -42 128 103 274 69 69 116 126 131 158
117 245 -153 470 -409 340 -100 -50 -248 -227 -305 -362 -52 -125 -69 -209
-70 -348 -1 -71 2 -149 6 -172 19 -113 91 -272 169 -376 l51 -67 36 31 c21 17
70 63 111 102 l73 71 -43 15 c-149 48 -223 186 -233 429 -10 245 72 428 211
476 71 24 132 5 158 -49 29 -62 15 -103 -65 -193 -91 -102 -130 -203 -124
-321 9 -165 139 -236 303 -166 156 66 305 207 377 358 17 36 33 48 35 27 5
-35 31 -120 38 -120 3 0 33 14 67 30 70 35 137 97 167 155 l21 40 15 -53 c14
-52 15 -53 45 -47 41 9 298 84 303 89 11 11 -139 274 -166 291 -5 2 -8 -6 -8
-19 0 -38 -41 -154 -70 -197 -14 -22 -27 -38 -28 -37 -1 2 -5 44 -8 94 -4 50
-8 97 -11 105 -3 8 -7 38 -10 67 -11 98 -18 127 -34 145 -17 20 -193 109 -200
102 -2 -2 6 -32 18 -67 36 -103 49 -195 46 -308 -2 -58 -7 -117 -10 -132 -18
-76 -22 -70 -55 74 -66 285 -130 461 -174 477 -22 9 -230 14 -239 6z"/>
<path d="M2094 1236 c-161 -127 -296 -296 -388 -485 -48 -99 -104 -256 -94
-266 8 -9 115 42 183 87 212 142 353 379 383 646 5 40 6 75 2 77 -4 2 -42 -24
-86 -59z"/>
</g>
</svg>
